<mxfile host="app.diagrams.net" modified="2022-01-17T06:42:00.768Z" agent="5.0 (Windows NT 10.0; Win64; x64) AppleWebKit/537.36 (KHTML, like Gecko) Chrome/97.0.4692.71 Safari/537.36" etag="kvRmeKj9TE52UMZz3uyi" version="16.2.7" type="github" pages="4">
  <diagram id="umNzM8Ve97_fDtR-dAsz" name="库存盘点时序图">
    <mxGraphModel dx="1422" dy="767" grid="1" gridSize="10" guides="1" tooltips="1" connect="1" arrows="1" fold="1" page="1" pageScale="1" pageWidth="827" pageHeight="1169" math="0" shadow="0">
      <root>
        <mxCell id="0" />
        <mxCell id="1" parent="0" />
      </root>
    </mxGraphModel>
  </diagram>
  <diagram id="uT7HqaZZkiz_ikNXBzii" name="库存盘点行为图">
    <mxGraphModel dx="1422" dy="767" grid="1" gridSize="10" guides="1" tooltips="1" connect="1" arrows="1" fold="1" page="1" pageScale="1" pageWidth="827" pageHeight="1169" math="0" shadow="0">
      <root>
        <mxCell id="cGxvXAa2omujSZtcGAt--0" />
        <mxCell id="cGxvXAa2omujSZtcGAt--1" parent="cGxvXAa2omujSZtcGAt--0" />
      </root>
    </mxGraphModel>
  </diagram>
  <diagram id="xGGEeYQ9SPVqYbfntmPY" name="库存盘点聚合根">
    <mxGraphModel dx="1422" dy="767" grid="1" gridSize="10" guides="1" tooltips="1" connect="1" arrows="1" fold="1" page="1" pageScale="1" pageWidth="827" pageHeight="1169" math="0" shadow="0">
      <root>
        <mxCell id="S36UJJU6O8qHxqdBotNk-0" />
        <mxCell id="S36UJJU6O8qHxqdBotNk-1" parent="S36UJJU6O8qHxqdBotNk-0" />
      </root>
    </mxGraphModel>
  </diagram>
  <diagram id="ERK7xvkID-KD6nBVZm7_" name="库存盘点事件设计">
    <mxGraphModel dx="1096" dy="575" grid="1" gridSize="10" guides="1" tooltips="1" connect="1" arrows="1" fold="1" page="1" pageScale="1" pageWidth="827" pageHeight="1169" math="0" shadow="0">
      <root>
        <mxCell id="gziwdHdqzvuFapXi7QN_-0" />
        <mxCell id="gziwdHdqzvuFapXi7QN_-1" parent="gziwdHdqzvuFapXi7QN_-0" />
        <mxCell id="gziwdHdqzvuFapXi7QN_-3" value="盘点清单" style="shape=table;startSize=30;container=1;collapsible=1;childLayout=tableLayout;fixedRows=1;rowLines=0;fontStyle=1;align=center;resizeLast=1;fillColor=#BFB963;" vertex="1" parent="gziwdHdqzvuFapXi7QN_-1">
          <mxGeometry x="390" y="70" width="180" height="300" as="geometry" />
        </mxCell>
        <mxCell id="gziwdHdqzvuFapXi7QN_-4" value="" style="shape=tableRow;horizontal=0;startSize=0;swimlaneHead=0;swimlaneBody=0;fillColor=#BFB963;collapsible=0;dropTarget=0;points=[[0,0.5],[1,0.5]];portConstraint=eastwest;top=0;left=0;right=0;bottom=1;" vertex="1" parent="gziwdHdqzvuFapXi7QN_-3">
          <mxGeometry y="30" width="180" height="30" as="geometry" />
        </mxCell>
        <mxCell id="gziwdHdqzvuFapXi7QN_-5" value="PK" style="shape=partialRectangle;connectable=0;fillColor=#BFB963;top=0;left=0;bottom=0;right=0;fontStyle=1;overflow=hidden;" vertex="1" parent="gziwdHdqzvuFapXi7QN_-4">
          <mxGeometry width="30" height="30" as="geometry">
            <mxRectangle width="30" height="30" as="alternateBounds" />
          </mxGeometry>
        </mxCell>
        <mxCell id="gziwdHdqzvuFapXi7QN_-6" value="ID" style="shape=partialRectangle;connectable=0;fillColor=#BFB963;top=0;left=0;bottom=0;right=0;align=left;spacingLeft=6;fontStyle=1;overflow=hidden;" vertex="1" parent="gziwdHdqzvuFapXi7QN_-4">
          <mxGeometry x="30" width="150" height="30" as="geometry">
            <mxRectangle width="150" height="30" as="alternateBounds" />
          </mxGeometry>
        </mxCell>
        <mxCell id="gziwdHdqzvuFapXi7QN_-7" value="" style="shape=tableRow;horizontal=0;startSize=0;swimlaneHead=0;swimlaneBody=0;fillColor=#BFB963;collapsible=0;dropTarget=0;points=[[0,0.5],[1,0.5]];portConstraint=eastwest;top=0;left=0;right=0;bottom=0;" vertex="1" parent="gziwdHdqzvuFapXi7QN_-3">
          <mxGeometry y="60" width="180" height="30" as="geometry" />
        </mxCell>
        <mxCell id="gziwdHdqzvuFapXi7QN_-8" value="" style="shape=partialRectangle;connectable=0;fillColor=#BFB963;top=0;left=0;bottom=0;right=0;editable=1;overflow=hidden;" vertex="1" parent="gziwdHdqzvuFapXi7QN_-7">
          <mxGeometry width="30" height="30" as="geometry">
            <mxRectangle width="30" height="30" as="alternateBounds" />
          </mxGeometry>
        </mxCell>
        <mxCell id="gziwdHdqzvuFapXi7QN_-9" value="零件编号" style="shape=partialRectangle;connectable=0;fillColor=#BFB963;top=0;left=0;bottom=0;right=0;align=left;spacingLeft=6;overflow=hidden;" vertex="1" parent="gziwdHdqzvuFapXi7QN_-7">
          <mxGeometry x="30" width="150" height="30" as="geometry">
            <mxRectangle width="150" height="30" as="alternateBounds" />
          </mxGeometry>
        </mxCell>
        <mxCell id="gziwdHdqzvuFapXi7QN_-10" value="" style="shape=tableRow;horizontal=0;startSize=0;swimlaneHead=0;swimlaneBody=0;fillColor=#BFB963;collapsible=0;dropTarget=0;points=[[0,0.5],[1,0.5]];portConstraint=eastwest;top=0;left=0;right=0;bottom=0;" vertex="1" parent="gziwdHdqzvuFapXi7QN_-3">
          <mxGeometry y="90" width="180" height="30" as="geometry" />
        </mxCell>
        <mxCell id="gziwdHdqzvuFapXi7QN_-11" value="" style="shape=partialRectangle;connectable=0;fillColor=#BFB963;top=0;left=0;bottom=0;right=0;editable=1;overflow=hidden;" vertex="1" parent="gziwdHdqzvuFapXi7QN_-10">
          <mxGeometry width="30" height="30" as="geometry">
            <mxRectangle width="30" height="30" as="alternateBounds" />
          </mxGeometry>
        </mxCell>
        <mxCell id="gziwdHdqzvuFapXi7QN_-12" value="货位号" style="shape=partialRectangle;connectable=0;fillColor=#BFB963;top=0;left=0;bottom=0;right=0;align=left;spacingLeft=6;overflow=hidden;" vertex="1" parent="gziwdHdqzvuFapXi7QN_-10">
          <mxGeometry x="30" width="150" height="30" as="geometry">
            <mxRectangle width="150" height="30" as="alternateBounds" />
          </mxGeometry>
        </mxCell>
        <mxCell id="gziwdHdqzvuFapXi7QN_-13" style="shape=tableRow;horizontal=0;startSize=0;swimlaneHead=0;swimlaneBody=0;fillColor=#BFB963;collapsible=0;dropTarget=0;points=[[0,0.5],[1,0.5]];portConstraint=eastwest;top=0;left=0;right=0;bottom=0;" vertex="1" parent="gziwdHdqzvuFapXi7QN_-3">
          <mxGeometry y="120" width="180" height="30" as="geometry" />
        </mxCell>
        <mxCell id="gziwdHdqzvuFapXi7QN_-14" style="shape=partialRectangle;connectable=0;fillColor=#BFB963;top=0;left=0;bottom=0;right=0;editable=1;overflow=hidden;" vertex="1" parent="gziwdHdqzvuFapXi7QN_-13">
          <mxGeometry width="30" height="30" as="geometry">
            <mxRectangle width="30" height="30" as="alternateBounds" />
          </mxGeometry>
        </mxCell>
        <mxCell id="gziwdHdqzvuFapXi7QN_-15" value="零件名称" style="shape=partialRectangle;connectable=0;fillColor=#BFB963;top=0;left=0;bottom=0;right=0;align=left;spacingLeft=6;overflow=hidden;" vertex="1" parent="gziwdHdqzvuFapXi7QN_-13">
          <mxGeometry x="30" width="150" height="30" as="geometry">
            <mxRectangle width="150" height="30" as="alternateBounds" />
          </mxGeometry>
        </mxCell>
        <mxCell id="gziwdHdqzvuFapXi7QN_-16" style="shape=tableRow;horizontal=0;startSize=0;swimlaneHead=0;swimlaneBody=0;fillColor=#BFB963;collapsible=0;dropTarget=0;points=[[0,0.5],[1,0.5]];portConstraint=eastwest;top=0;left=0;right=0;bottom=0;" vertex="1" parent="gziwdHdqzvuFapXi7QN_-3">
          <mxGeometry y="150" width="180" height="30" as="geometry" />
        </mxCell>
        <mxCell id="gziwdHdqzvuFapXi7QN_-17" style="shape=partialRectangle;connectable=0;fillColor=#BFB963;top=0;left=0;bottom=0;right=0;editable=1;overflow=hidden;" vertex="1" parent="gziwdHdqzvuFapXi7QN_-16">
          <mxGeometry width="30" height="30" as="geometry">
            <mxRectangle width="30" height="30" as="alternateBounds" />
          </mxGeometry>
        </mxCell>
        <mxCell id="gziwdHdqzvuFapXi7QN_-18" value="库存数" style="shape=partialRectangle;connectable=0;fillColor=#BFB963;top=0;left=0;bottom=0;right=0;align=left;spacingLeft=6;overflow=hidden;" vertex="1" parent="gziwdHdqzvuFapXi7QN_-16">
          <mxGeometry x="30" width="150" height="30" as="geometry">
            <mxRectangle width="150" height="30" as="alternateBounds" />
          </mxGeometry>
        </mxCell>
        <mxCell id="gziwdHdqzvuFapXi7QN_-19" style="shape=tableRow;horizontal=0;startSize=0;swimlaneHead=0;swimlaneBody=0;fillColor=#BFB963;collapsible=0;dropTarget=0;points=[[0,0.5],[1,0.5]];portConstraint=eastwest;top=0;left=0;right=0;bottom=0;" vertex="1" parent="gziwdHdqzvuFapXi7QN_-3">
          <mxGeometry y="180" width="180" height="30" as="geometry" />
        </mxCell>
        <mxCell id="gziwdHdqzvuFapXi7QN_-20" style="shape=partialRectangle;connectable=0;fillColor=#BFB963;top=0;left=0;bottom=0;right=0;editable=1;overflow=hidden;" vertex="1" parent="gziwdHdqzvuFapXi7QN_-19">
          <mxGeometry width="30" height="30" as="geometry">
            <mxRectangle width="30" height="30" as="alternateBounds" />
          </mxGeometry>
        </mxCell>
        <mxCell id="gziwdHdqzvuFapXi7QN_-21" value="库存单位" style="shape=partialRectangle;connectable=0;fillColor=#BFB963;top=0;left=0;bottom=0;right=0;align=left;spacingLeft=6;overflow=hidden;" vertex="1" parent="gziwdHdqzvuFapXi7QN_-19">
          <mxGeometry x="30" width="150" height="30" as="geometry">
            <mxRectangle width="150" height="30" as="alternateBounds" />
          </mxGeometry>
        </mxCell>
        <mxCell id="gziwdHdqzvuFapXi7QN_-22" style="shape=tableRow;horizontal=0;startSize=0;swimlaneHead=0;swimlaneBody=0;fillColor=#BFB963;collapsible=0;dropTarget=0;points=[[0,0.5],[1,0.5]];portConstraint=eastwest;top=0;left=0;right=0;bottom=0;" vertex="1" parent="gziwdHdqzvuFapXi7QN_-3">
          <mxGeometry y="210" width="180" height="30" as="geometry" />
        </mxCell>
        <mxCell id="gziwdHdqzvuFapXi7QN_-23" style="shape=partialRectangle;connectable=0;fillColor=#BFB963;top=0;left=0;bottom=0;right=0;editable=1;overflow=hidden;" vertex="1" parent="gziwdHdqzvuFapXi7QN_-22">
          <mxGeometry width="30" height="30" as="geometry">
            <mxRectangle width="30" height="30" as="alternateBounds" />
          </mxGeometry>
        </mxCell>
        <mxCell id="gziwdHdqzvuFapXi7QN_-24" value="厂家种类" style="shape=partialRectangle;connectable=0;fillColor=#BFB963;top=0;left=0;bottom=0;right=0;align=left;spacingLeft=6;overflow=hidden;" vertex="1" parent="gziwdHdqzvuFapXi7QN_-22">
          <mxGeometry x="30" width="150" height="30" as="geometry">
            <mxRectangle width="150" height="30" as="alternateBounds" />
          </mxGeometry>
        </mxCell>
        <mxCell id="gziwdHdqzvuFapXi7QN_-25" style="shape=tableRow;horizontal=0;startSize=0;swimlaneHead=0;swimlaneBody=0;fillColor=#BFB963;collapsible=0;dropTarget=0;points=[[0,0.5],[1,0.5]];portConstraint=eastwest;top=0;left=0;right=0;bottom=0;" vertex="1" parent="gziwdHdqzvuFapXi7QN_-3">
          <mxGeometry y="240" width="180" height="30" as="geometry" />
        </mxCell>
        <mxCell id="gziwdHdqzvuFapXi7QN_-26" style="shape=partialRectangle;connectable=0;fillColor=#BFB963;top=0;left=0;bottom=0;right=0;editable=1;overflow=hidden;" vertex="1" parent="gziwdHdqzvuFapXi7QN_-25">
          <mxGeometry width="30" height="30" as="geometry">
            <mxRectangle width="30" height="30" as="alternateBounds" />
          </mxGeometry>
        </mxCell>
        <mxCell id="gziwdHdqzvuFapXi7QN_-27" value="库存分类" style="shape=partialRectangle;connectable=0;fillColor=#BFB963;top=0;left=0;bottom=0;right=0;align=left;spacingLeft=6;overflow=hidden;" vertex="1" parent="gziwdHdqzvuFapXi7QN_-25">
          <mxGeometry x="30" width="150" height="30" as="geometry">
            <mxRectangle width="150" height="30" as="alternateBounds" />
          </mxGeometry>
        </mxCell>
        <mxCell id="gziwdHdqzvuFapXi7QN_-28" style="shape=tableRow;horizontal=0;startSize=0;swimlaneHead=0;swimlaneBody=0;fillColor=#BFB963;collapsible=0;dropTarget=0;points=[[0,0.5],[1,0.5]];portConstraint=eastwest;top=0;left=0;right=0;bottom=0;" vertex="1" parent="gziwdHdqzvuFapXi7QN_-3">
          <mxGeometry y="270" width="180" height="30" as="geometry" />
        </mxCell>
        <mxCell id="gziwdHdqzvuFapXi7QN_-29" style="shape=partialRectangle;connectable=0;fillColor=#BFB963;top=0;left=0;bottom=0;right=0;editable=1;overflow=hidden;" vertex="1" parent="gziwdHdqzvuFapXi7QN_-28">
          <mxGeometry width="30" height="30" as="geometry">
            <mxRectangle width="30" height="30" as="alternateBounds" />
          </mxGeometry>
        </mxCell>
        <mxCell id="gziwdHdqzvuFapXi7QN_-30" value="零件流动时段" style="shape=partialRectangle;connectable=0;fillColor=#BFB963;top=0;left=0;bottom=0;right=0;align=left;spacingLeft=6;overflow=hidden;" vertex="1" parent="gziwdHdqzvuFapXi7QN_-28">
          <mxGeometry x="30" width="150" height="30" as="geometry">
            <mxRectangle width="150" height="30" as="alternateBounds" />
          </mxGeometry>
        </mxCell>
        <mxCell id="gziwdHdqzvuFapXi7QN_-34" value="零件档案" style="shape=table;startSize=30;container=1;collapsible=1;childLayout=tableLayout;fixedRows=1;rowLines=0;fontStyle=1;align=center;resizeLast=1;fillColor=#BFB963;" vertex="1" parent="gziwdHdqzvuFapXi7QN_-1">
          <mxGeometry x="90" y="210" width="180" height="150" as="geometry" />
        </mxCell>
        <mxCell id="gziwdHdqzvuFapXi7QN_-35" value="" style="shape=tableRow;horizontal=0;startSize=0;swimlaneHead=0;swimlaneBody=0;fillColor=#BFB963;collapsible=0;dropTarget=0;points=[[0,0.5],[1,0.5]];portConstraint=eastwest;top=0;left=0;right=0;bottom=1;" vertex="1" parent="gziwdHdqzvuFapXi7QN_-34">
          <mxGeometry y="30" width="180" height="30" as="geometry" />
        </mxCell>
        <mxCell id="gziwdHdqzvuFapXi7QN_-36" value="PK" style="shape=partialRectangle;connectable=0;fillColor=#BFB963;top=0;left=0;bottom=0;right=0;fontStyle=1;overflow=hidden;" vertex="1" parent="gziwdHdqzvuFapXi7QN_-35">
          <mxGeometry width="30" height="30" as="geometry">
            <mxRectangle width="30" height="30" as="alternateBounds" />
          </mxGeometry>
        </mxCell>
        <mxCell id="gziwdHdqzvuFapXi7QN_-37" value="ID" style="shape=partialRectangle;connectable=0;fillColor=#BFB963;top=0;left=0;bottom=0;right=0;align=left;spacingLeft=6;fontStyle=1;overflow=hidden;" vertex="1" parent="gziwdHdqzvuFapXi7QN_-35">
          <mxGeometry x="30" width="150" height="30" as="geometry">
            <mxRectangle width="150" height="30" as="alternateBounds" />
          </mxGeometry>
        </mxCell>
        <mxCell id="gziwdHdqzvuFapXi7QN_-38" value="" style="shape=tableRow;horizontal=0;startSize=0;swimlaneHead=0;swimlaneBody=0;fillColor=#BFB963;collapsible=0;dropTarget=0;points=[[0,0.5],[1,0.5]];portConstraint=eastwest;top=0;left=0;right=0;bottom=0;" vertex="1" parent="gziwdHdqzvuFapXi7QN_-34">
          <mxGeometry y="60" width="180" height="30" as="geometry" />
        </mxCell>
        <mxCell id="gziwdHdqzvuFapXi7QN_-39" value="" style="shape=partialRectangle;connectable=0;fillColor=#BFB963;top=0;left=0;bottom=0;right=0;editable=1;overflow=hidden;" vertex="1" parent="gziwdHdqzvuFapXi7QN_-38">
          <mxGeometry width="30" height="30" as="geometry">
            <mxRectangle width="30" height="30" as="alternateBounds" />
          </mxGeometry>
        </mxCell>
        <mxCell id="gziwdHdqzvuFapXi7QN_-40" value="零件编号" style="shape=partialRectangle;connectable=0;fillColor=#BFB963;top=0;left=0;bottom=0;right=0;align=left;spacingLeft=6;overflow=hidden;" vertex="1" parent="gziwdHdqzvuFapXi7QN_-38">
          <mxGeometry x="30" width="150" height="30" as="geometry">
            <mxRectangle width="150" height="30" as="alternateBounds" />
          </mxGeometry>
        </mxCell>
        <mxCell id="gziwdHdqzvuFapXi7QN_-44" style="shape=tableRow;horizontal=0;startSize=0;swimlaneHead=0;swimlaneBody=0;fillColor=#BFB963;collapsible=0;dropTarget=0;points=[[0,0.5],[1,0.5]];portConstraint=eastwest;top=0;left=0;right=0;bottom=0;" vertex="1" parent="gziwdHdqzvuFapXi7QN_-34">
          <mxGeometry y="90" width="180" height="30" as="geometry" />
        </mxCell>
        <mxCell id="gziwdHdqzvuFapXi7QN_-45" style="shape=partialRectangle;connectable=0;fillColor=#BFB963;top=0;left=0;bottom=0;right=0;editable=1;overflow=hidden;" vertex="1" parent="gziwdHdqzvuFapXi7QN_-44">
          <mxGeometry width="30" height="30" as="geometry">
            <mxRectangle width="30" height="30" as="alternateBounds" />
          </mxGeometry>
        </mxCell>
        <mxCell id="gziwdHdqzvuFapXi7QN_-46" value="零件分类" style="shape=partialRectangle;connectable=0;fillColor=#BFB963;top=0;left=0;bottom=0;right=0;align=left;spacingLeft=6;overflow=hidden;" vertex="1" parent="gziwdHdqzvuFapXi7QN_-44">
          <mxGeometry x="30" width="150" height="30" as="geometry">
            <mxRectangle width="150" height="30" as="alternateBounds" />
          </mxGeometry>
        </mxCell>
        <mxCell id="gziwdHdqzvuFapXi7QN_-47" style="shape=tableRow;horizontal=0;startSize=0;swimlaneHead=0;swimlaneBody=0;fillColor=#BFB963;collapsible=0;dropTarget=0;points=[[0,0.5],[1,0.5]];portConstraint=eastwest;top=0;left=0;right=0;bottom=0;" vertex="1" parent="gziwdHdqzvuFapXi7QN_-34">
          <mxGeometry y="120" width="180" height="30" as="geometry" />
        </mxCell>
        <mxCell id="gziwdHdqzvuFapXi7QN_-48" style="shape=partialRectangle;connectable=0;fillColor=#BFB963;top=0;left=0;bottom=0;right=0;editable=1;overflow=hidden;" vertex="1" parent="gziwdHdqzvuFapXi7QN_-47">
          <mxGeometry width="30" height="30" as="geometry">
            <mxRectangle width="30" height="30" as="alternateBounds" />
          </mxGeometry>
        </mxCell>
        <mxCell id="gziwdHdqzvuFapXi7QN_-49" value="月平均需求" style="shape=partialRectangle;connectable=0;fillColor=#BFB963;top=0;left=0;bottom=0;right=0;align=left;spacingLeft=6;overflow=hidden;" vertex="1" parent="gziwdHdqzvuFapXi7QN_-47">
          <mxGeometry x="30" width="150" height="30" as="geometry">
            <mxRectangle width="150" height="30" as="alternateBounds" />
          </mxGeometry>
        </mxCell>
        <mxCell id="gziwdHdqzvuFapXi7QN_-65" value="" style="edgeStyle=entityRelationEdgeStyle;fontSize=12;html=1;endArrow=ERmany;rounded=0;entryX=0;entryY=0.5;entryDx=0;entryDy=0;" edge="1" parent="gziwdHdqzvuFapXi7QN_-1" source="gziwdHdqzvuFapXi7QN_-38" target="gziwdHdqzvuFapXi7QN_-7">
          <mxGeometry width="100" height="100" relative="1" as="geometry">
            <mxPoint x="200" y="420" as="sourcePoint" />
            <mxPoint x="300" y="320" as="targetPoint" />
          </mxGeometry>
        </mxCell>
      </root>
    </mxGraphModel>
  </diagram>
</mxfile>
